<svg
  height="170"
  width="1162"
  viewBox="0 0 1162 170"
  role="img"
  xmlns="http://www.w3.org/2000/svg"
>
  <title>Structured output payload banner</title>
  <desc>
    A published document expanding into its structured JSON payload , title,
    version, sections, steps, full_text, metadata
  </desc>
  <defs>
    <marker
      id="a7"
      viewBox="0 0 10 10"
      refX="8"
      refY="5"
      markerWidth="5"
      markerHeight="5"
      orient="auto-start-reverse"
    >
      <path
        d="M2 1L8 5L2 9"
        fill="none"
        stroke="context-stroke"
        stroke-width="1.5"
        stroke-linecap="round"
        stroke-linejoin="round"
      />
    </marker>
  </defs>

  <rect width="1152" height="160" fill="transparent" />

  <!-- Source doc -->
  <rect
    x="40"
    y="26"
    width="58"
    height="108"
    rx="6"
    fill="#fef3e2"
    stroke="#ea580c"
    stroke-width="2"
  />
  <rect x="44" y="26" width="9" height="108" rx="3" fill="#fde8d0" />
  <rect
    x="58"
    y="36"
    width="32"
    height="6"
    rx="2"
    fill="#ea580c"
    opacity="0.35"
  />
  <line
    x1="58"
    y1="46"
    x2="90"
    y2="46"
    stroke="#ea580c"
    stroke-width="1"
    opacity="0.3"
  />
  <line
    x1="58"
    y1="52"
    x2="90"
    y2="52"
    stroke="#ea580c"
    stroke-width="1"
    opacity="0.3"
  />
  <rect
    x="58"
    y="60"
    width="32"
    height="6"
    rx="2"
    fill="#ea580c"
    opacity="0.35"
  />
  <line
    x1="58"
    y1="70"
    x2="90"
    y2="70"
    stroke="#ea580c"
    stroke-width="1"
    opacity="0.3"
  />
  <line
    x1="58"
    y1="76"
    x2="86"
    y2="76"
    stroke="#ea580c"
    stroke-width="1"
    opacity="0.3"
  />
  <rect
    x="58"
    y="84"
    width="32"
    height="6"
    rx="2"
    fill="#ea580c"
    opacity="0.35"
  />
  <line
    x1="58"
    y1="94"
    x2="90"
    y2="94"
    stroke="#ea580c"
    stroke-width="1"
    opacity="0.3"
  />
  <line
    x1="58"
    y1="100"
    x2="84"
    y2="100"
    stroke="#ea580c"
    stroke-width="1"
    opacity="0.3"
  />
  <line
    x1="58"
    y1="108"
    x2="90"
    y2="108"
    stroke="#ea580c"
    stroke-width="1"
    opacity="0.25"
  />
  <line
    x1="58"
    y1="114"
    x2="82"
    y2="114"
    stroke="#ea580c"
    stroke-width="1"
    opacity="0.25"
  />

  <!-- publish badge -->
  <rect
    x="36"
    y="118"
    width="66"
    height="22"
    rx="5"
    fill="#ea580c"
    opacity="0.15"
    stroke="#ea580c"
    stroke-width="1"
  />
  <circle cx="52" cy="129" r="4" fill="#ea580c" opacity="0.5" />
  <!-- pulse rings -->
  <circle
    cx="52"
    cy="129"
    r="8"
    fill="none"
    stroke="#ea580c"
    stroke-width="1"
    opacity="0.3"
  />
  <circle
    cx="52"
    cy="129"
    r="13"
    fill="none"
    stroke="#ea580c"
    stroke-width="0.5"
    opacity="0.15"
  />

  <!-- Expand arrow -->
  <line
    x1="108"
    y1="80"
    x2="168"
    y2="80"
    stroke="#ea580c"
    stroke-width="2"
    marker-end="url(#a7)"
  />

  <!-- JSON payload block -->
  <rect
    x="172"
    y="12"
    width="340"
    height="136"
    rx="10"
    fill="#fff"
    stroke="#ea580c"
    stroke-width="1.5"
  />
  <!-- left accent bar -->
  <rect
    x="172"
    y="12"
    width="6"
    height="136"
    rx="3"
    fill="#ea580c"
    opacity="0.3"
  />

  <!-- field rows -->
  <!-- title -->
  <rect
    x="188"
    y="22"
    width="44"
    height="14"
    rx="3"
    fill="#ea580c"
    opacity="0.18"
  />
  <line
    x1="238"
    y1="26"
    x2="330"
    y2="26"
    stroke="#d1d5db"
    stroke-width="1"
  />
  <line
    x1="238"
    y1="32"
    x2="300"
    y2="32"
    stroke="#d1d5db"
    stroke-width="1"
  />

  <!-- version -->
  <rect
    x="188"
    y="42"
    width="44"
    height="14"
    rx="3"
    fill="#ea580c"
    opacity="0.12"
  />
  <line
    x1="238"
    y1="46"
    x2="280"
    y2="46"
    stroke="#d1d5db"
    stroke-width="1"
  />
  <line
    x1="238"
    y1="52"
    x2="260"
    y2="52"
    stroke="#d1d5db"
    stroke-width="1"
  />

  <!-- authors -->
  <rect
    x="188"
    y="62"
    width="44"
    height="14"
    rx="3"
    fill="#ea580c"
    opacity="0.12"
  />
  <line
    x1="238"
    y1="66"
    x2="310"
    y2="66"
    stroke="#d1d5db"
    stroke-width="1"
  />
  <line
    x1="238"
    y1="72"
    x2="290"
    y2="72"
    stroke="#d1d5db"
    stroke-width="1"
  />

  <!-- sections , highlighted -->
  <rect
    x="188"
    y="82"
    width="52"
    height="16"
    rx="3"
    fill="#ea580c"
    opacity="0.25"
    stroke="#ea580c"
    stroke-width="1"
  />
  <!-- nested steps -->
  <rect x="248" y="84" width="252" height="12" rx="2" fill="#fef3e2" />
  <line
    x1="256"
    y1="88"
    x2="490"
    y2="88"
    stroke="#ea580c"
    stroke-width="1"
    opacity="0.35"
  />
  <line
    x1="256"
    y1="93"
    x2="470"
    y2="93"
    stroke="#ea580c"
    stroke-width="1"
    opacity="0.35"
  />

  <!-- steps -->
  <rect
    x="188"
    y="104"
    width="44"
    height="14"
    rx="3"
    fill="#ea580c"
    opacity="0.18"
  />
  <rect x="238" y="104" width="262" height="12" rx="2" fill="#fef3e2" />
  <line
    x1="246"
    y1="108"
    x2="492"
    y2="108"
    stroke="#ea580c"
    stroke-width="1"
    opacity="0.3"
  />
  <line
    x1="246"
    y1="113"
    x2="470"
    y2="113"
    stroke="#ea580c"
    stroke-width="1"
    opacity="0.3"
  />

  <!-- full_text -->
  <rect
    x="188"
    y="122"
    width="52"
    height="14"
    rx="3"
    fill="#ea580c"
    opacity="0.12"
  />
  <line
    x1="246"
    y1="126"
    x2="500"
    y2="126"
    stroke="#d1d5db"
    stroke-width="1"
  />
  <line
    x1="246"
    y1="132"
    x2="480"
    y2="132"
    stroke="#d1d5db"
    stroke-width="1"
  />

  <!-- Bracket / expand lines from payload -->
  <line
    x1="516"
    y1="36"
    x2="580"
    y2="36"
    stroke="#9ca3af"
    stroke-width="1"
    marker-end="url(#a7)"
    opacity="0.5"
  />
  <line
    x1="516"
    y1="80"
    x2="580"
    y2="80"
    stroke="#ea580c"
    stroke-width="1.5"
    marker-end="url(#a7)"
    opacity="0.7"
  />
  <line
    x1="516"
    y1="124"
    x2="580"
    y2="124"
    stroke="#9ca3af"
    stroke-width="1"
    marker-end="url(#a7)"
    opacity="0.5"
  />

  <!-- Consumer cards -->
  <!-- metadata card -->
  <rect
    x="584"
    y="20"
    width="110"
    height="32"
    rx="6"
    fill="#f3f4f6"
    stroke="#e5e7eb"
    stroke-width="1.5"
  />
  <line
    x1="596"
    y1="30"
    x2="684"
    y2="30"
    stroke="#d1d5db"
    stroke-width="1"
  />
  <line
    x1="596"
    y1="38"
    x2="672"
    y2="38"
    stroke="#d1d5db"
    stroke-width="1"
  />

  <!-- sections consumer , highlighted -->
  <rect
    x="584"
    y="64"
    width="110"
    height="32"
    rx="6"
    fill="#fef3e2"
    stroke="#ea580c"
    stroke-width="2"
  />
  <rect
    x="596"
    y="72"
    width="86"
    height="6"
    rx="2"
    fill="#ea580c"
    opacity="0.2"
  />
  <line
    x1="596"
    y1="82"
    x2="680"
    y2="82"
    stroke="#ea580c"
    stroke-width="1"
    opacity="0.4"
  />
  <line
    x1="596"
    y1="88"
    x2="668"
    y2="88"
    stroke="#ea580c"
    stroke-width="1"
    opacity="0.4"
  />

  <!-- full_text consumer -->
  <rect
    x="584"
    y="108"
    width="110"
    height="32"
    rx="6"
    fill="#f3f4f6"
    stroke="#e5e7eb"
    stroke-width="1.5"
  />
  <line
    x1="596"
    y1="118"
    x2="684"
    y2="118"
    stroke="#d1d5db"
    stroke-width="1"
  />
  <line
    x1="596"
    y1="126"
    x2="672"
    y2="126"
    stroke="#d1d5db"
    stroke-width="1"
  />

  <!-- Second fan to destinations -->
  <line
    x1="698"
    y1="36"
    x2="760"
    y2="46"
    stroke="#9ca3af"
    stroke-width="1"
    opacity="0.4"
  />
  <line
    x1="698"
    y1="80"
    x2="760"
    y2="80"
    stroke="#ea580c"
    stroke-width="1.5"
    opacity="0.5"
  />
  <line
    x1="698"
    y1="124"
    x2="760"
    y2="114"
    stroke="#9ca3af"
    stroke-width="1"
    opacity="0.4"
  />

  <rect
    x="762"
    y="34"
    width="90"
    height="24"
    rx="5"
    fill="#fff7ed"
    stroke="#fdba74"
    stroke-width="1"
  />
  <rect
    x="762"
    y="68"
    width="90"
    height="24"
    rx="5"
    fill="#fff7ed"
    stroke="#fdba74"
    stroke-width="1"
  />
  <rect
    x="762"
    y="102"
    width="90"
    height="24"
    rx="5"
    fill="#fff7ed"
    stroke="#fdba74"
    stroke-width="1"
  />

  <!-- content lines in destination cards -->
  <line
    x1="774"
    y1="44"
    x2="842"
    y2="44"
    stroke="#fdba74"
    stroke-width="1"
    opacity="0.6"
  />
  <line
    x1="774"
    y1="80"
    x2="842"
    y2="80"
    stroke="#fdba74"
    stroke-width="1"
    opacity="0.6"
  />
  <line
    x1="774"
    y1="114"
    x2="842"
    y2="114"
    stroke="#fdba74"
    stroke-width="1"
    opacity="0.6"
  />

  <!-- Third fan -->
  <line
    x1="856"
    y1="46"
    x2="910"
    y2="52"
    stroke="#ea580c"
    stroke-width="1"
    opacity="0.25"
  />
  <line
    x1="856"
    y1="80"
    x2="910"
    y2="80"
    stroke="#ea580c"
    stroke-width="1"
    opacity="0.25"
  />
  <line
    x1="856"
    y1="114"
    x2="910"
    y2="108"
    stroke="#ea580c"
    stroke-width="1"
    opacity="0.25"
  />

  <rect
    x="912"
    y="40"
    width="72"
    height="20"
    rx="4"
    fill="#f0fdf4"
    stroke="#16a34a"
    stroke-width="1"
  />
  <rect
    x="912"
    y="70"
    width="72"
    height="20"
    rx="4"
    fill="#fef3e2"
    stroke="#ea580c"
    stroke-width="1"
  />
  <rect
    x="912"
    y="100"
    width="72"
    height="20"
    rx="4"
    fill="#f0fdf4"
    stroke="#16a34a"
    stroke-width="1"
  />

  <!-- Terminal RAG / AI node -->
  <circle cx="1060" cy="80" r="38" fill="#ea580c" opacity="0.05" />
  <circle
    cx="1060"
    cy="80"
    r="26"
    fill="#fef3e2"
    stroke="#ea580c"
    stroke-width="1.5"
  />
  <!-- wave lines representing AI/vector -->
  <path
    d="M 1044 74 Q 1050 68 1056 74 Q 1062 80 1068 74 Q 1074 68 1080 74"
    fill="none"
    stroke="#ea580c"
    stroke-width="1.5"
    stroke-linecap="round"
  />
  <path
    d="M 1044 82 Q 1050 76 1056 82 Q 1062 88 1068 82 Q 1074 76 1080 82"
    fill="none"
    stroke="#ea580c"
    stroke-width="1.5"
    stroke-linecap="round"
    opacity="0.5"
  />

  <line
    x1="990"
    y1="80"
    x2="1030"
    y2="80"
    stroke="#ea580c"
    stroke-width="1.5"
    marker-end="url(#a7)"
    opacity="0.4"
  />

  <!-- corner accents -->
  <path
    d="M 26 34 Q 44 24 62 32"
    stroke="#ea580c"
    stroke-width="1.5"
    fill="none"
    opacity="0.18"
    stroke-linecap="round"
  />
  <path
    d="M 1090 126 Q 1108 136 1126 128"
    stroke="#ea580c"
    stroke-width="1.5"
    fill="none"
    opacity="0.18"
    stroke-linecap="round"
  />
  <circle cx="1138" cy="42" r="2" fill="#ea580c" opacity="0.2" />
  <circle cx="14" cy="118" r="2" fill="#ea580c" opacity="0.2" />
</svg>
