<svg 
    xmlns="http://www.w3.org/2000/svg" 
    width="367" 
    height="100" 
    viewBox="0 0 550 150" 
    style="shape-rendering: geometricprecision; text-rendering: geometricprecision; image-rendering: crisp-edges; fill-rule: evenodd; clip-rule: evenodd;"
>
    <defs>
        <mask id="cutout-hole">
          <rect width="100%" height="100%" fill="white"/>
          <path
            fill="black"
            d="M 120.5,39.5 C 116.03,40.4861 111.363,40.8195 106.5,40.5 C 106.334,35.4889 106.501,30.4889 107,25.5 C 111.703,30.0355 116.203,34.7021 120.5,39.5 Z"
          />
        </mask>
    </defs>

    <g mask="url(#cutout-hole)">
        <path fill="#ffffff" 
            d="M 28.5,11.5 C 53.5022,11.3334 78.5022,11.5 103.5,12 C 112.667,21.1667 121.833,30.3333 131,39.5 C 131.5,49.1609 131.666,58.8276 131.5,68.5 C 129.167,68.5 126.833,68.5 124.5,68.5 C 124.5,61.5 124.5,54.5 124.5,47.5 C 116.167,47.5 107.833,47.5 99.5,47.5C 99.5,37.8333 99.5,28.1667 99.5,18.5 C 76.5,18.5 53.5,18.5 30.5,18.5C 30.5,36.1667 30.5,53.8333 30.5,71.5C 28.1667,71.5 25.8333,71.5 23.5,71.5C 23.3334,52.8304 23.5001,34.1637 24,15.5 C 25.3968,13.9297 26.8968,12.5964 28.5,11.5 Z"
        />
        <path fill="#ffffff" 
            d="M 120.5,39.5 C 121.043,39.56 121.376,39.8933 121.5,40.5 C 116.348,41.8137 111.348,41.8137 106.5,40.5 C 111.363,40.8195 116.03,40.4861 120.5,39.5 Z"
        />
    </g>

    <path fill="#ea580c" 
        d="M 65.5,76.5 C 93.8333,76.5 122.167,76.5 150.5,76.5 C 150.5,81.1667 150.5,85.8333 150.5,90.5 C 131.338,91.6623 112.004,91.829 92.5,91 C 64.4969,89.7424 36.4969,88.5757 8.5,87.5 C 8.5,85.1667 8.5,82.8333 8.5,80.5 C 20.4001,80.4473 32.0668,79.4473 43.5,77.5 C 50.8333,77.1667 58.1667,76.8333 65.5,76.5 Z"
    />
    <path fill="#ea580c" 
        d="M 65.5,76.5 C 93.9951,75.502 122.662,75.1687 151.5,75.5 C 151.821,80.6946 151.487,85.6946 150.5,90.5 C 150.5,85.8333 150.5,81.1667 150.5,76.5 C 122.167,76.5 93.8333,76.5 65.5,76.5 Z"
    />
    <path fill="#ea580c" 
        d="M 43.5,77.5 C 32.0668,79.4473 20.4001,80.4473 8.5,80.5 C 8.5,82.8333 8.5,85.1667 8.5,87.5 C 7.52693,85.0521 7.1936,82.3854 7.5,79.5 C 19.4733,78.3912 31.4733,77.7245 43.5,77.5 Z"
    />

    <path fill="#ffffff" 
        d="M 29.5,95.5 C 30.4948,106.654 30.8281,117.988 30.5,129.5 C 61.8333,129.5 93.1667,129.5 124.5,129.5 C 93.0026,130.332 61.336,130.832 29.5,131 C 34.1782,131.197 34.5116,132.197 30.5,134 C 31.5,134.333 32.5,134.667 33.5,135 C 31.9419,135.21 30.6085,135.71 29.5,136.5 C 26.5,135.5 24.5,133.5 23.5,130.5 C 23.5,118.833 23.5,107.167 23.5,95.5 C 25.5,95.5 27.5,95.5 29.5,95.5 Z"/>
    <path fill="#ffffff" 
        d="M 29.5,95.5 C 27.5,95.5 25.5,95.5 23.5,95.5 C 23.5,107.167 23.5,118.833 23.5,130.5 C 22.5049,118.678 22.1716,106.678 22.5,94.5 C 25.0593,94.1984 27.3926,94.5318 29.5,95.5 Z"
    />
    <path fill="#ffffff" 
        d="M 29.5,136.5 C 30.6085,135.71 31.9419,135.21 33.5,135 C 32.5,134.667 31.5,134.333 30.5,134 C 34.5116,132.197 34.1782,131.197 29.5,131 C 61.336,130.832 93.0026,130.332 124.5,129.5 C 124.5,119.167 124.5,108.833 124.5,98.5 C 126.833,98.5 129.167,98.5 131.5,98.5 C 131.667,109.172 131.5,119.839 131,130.5 C 130.167,134 128,136.167 124.5,137 C 92.664,137.831 60.9973,137.664 29.5,136.5 Z"
    />

    <text font-family="Inter, sans-serif" font-weight="700" font-size="68" dominant-baseline="middle" y="83" style="stroke: none; opacity: 1; text-anchor: start;">
        <tspan x="160" fill="#ffffff">Doc</tspan><tspan dx="0" fill="#ea580c">Inject</tspan>
    </text>
</svg>
